<?xml version="1.0" standalone="no"?>
<!DOCTYPE svg PUBLIC "-//W3C//DTD SVG 1.1//EN" "http://www.w3.org/Graphics/SVG/1.1/DTD/svg11.dtd" >
<svg xmlns="http://www.w3.org/2000/svg">
<metadata>
<json>
{
	"fontFamily": "dashable",
	"majorVersion": 1,
	"minorVersion": 0,
	"version": "Version 1.0",
	"fontId": "dashable",
	"psName": "dashable",
	"subFamily": "Regular",
	"fullName": "dashable",
	"description": "Font generated by IcoMoon."
}
</json>
</metadata>
<defs>
<font id="dashable" horiz-adv-x="512">
<font-face units-per-em="512" ascent="480" descent="-32" />
<missing-glyph horiz-adv-x="512" />
<glyph unicode="&#x20;" d="" horiz-adv-x="256" />
<glyph unicode="&#xe600;" d="M396.112 371.341h-51.882c-1.075 32.483-23.658 108.659-118.621 108.659-94.989 0-117.565-76.176-118.647-108.659h-55.075c-28.656 0-51.888-17.242-51.888-38.502v-6.423c0-21.257 23.232-38.499 51.888-38.499h3.469v-260.013c0-33.065 28.666-59.904 63.993-59.904h217.863c35.351 0 64.016 26.839 64.016 59.904v260.397c26.208 1.93 46.771 18.157 46.771 38.115v6.423c0 21.261-23.238 38.502-51.888 38.502zM225.609 407.75c32.249 0 40.528-19.334 41.478-36.409h-82.954c1.027 17.28 9.405 36.409 41.475 36.409zM358.56 41.488c0-18.361-15.911-33.293-35.552-33.293h-189.408c-19.677 0-35.571 14.931-35.571 33.293v242.752l0.391 3.677h259.747l0.394-3.677v-242.752zM295.786 231.229h-34.601c-4.787 0-8.647-4.016-8.647-8.976v-176.425c0-4.96 3.859-8.979 8.647-8.979h34.601c4.781 0 8.64 4.019 8.64 8.979v176.425c0 4.96-3.859 8.976-8.64 8.976zM192.141 232.848h-34.886c-4.822 0-8.72-4.048-8.72-9.056v-177.891c0-5.011 3.898-9.053 8.72-9.053h34.887c4.826 0 8.717 4.041 8.717 9.053v177.891c0 5.008-3.891 9.056-8.717 9.056z" horiz-adv-x="448" />
<glyph unicode="&#xe601;" d="M744 78.202c-15.2 8.553-114.381 66.56-165.334 86.947v88.198c14.739 10.649 23.619 27.043 23.619 51.898v69.683c0 57.779-35.427 105.072-106.285 105.072s-106.285-47.293-106.285-105.072v-69.683c0-25.104 8.88-41.546 23.619-52.15v-87.946c-48-20.387-150.135-78.394-165.334-86.947-18.915-10.624-23.619-20.726-23.619-45.305v-58.375c0-3.399 2.861-6.522 6.32-6.522h530.598c3.459 0 6.32 3.123 6.32 6.522v58.375c0 24.579-4.704 34.681-23.619 45.305zM350.979 187.091l-19.286 8.429v76.419c5.107 3.677 9.411 8.163 12.733 13.565-8.743 10.281-13.76 24.231-13.76 43.091v69.683c0 12.41 1.632 24.352 4.902 35.43-15.053 21.063-40.304 34.618-75.76 34.618-61.613 0-92.423-40.976-92.423-91.043v-60.374c0-21.754 7.721-36 20.541-45.187v-76.202c-41.741-17.661-130.55-67.927-143.767-75.334-16.451-9.207-20.541-17.959-20.541-39.257v-50.576c0-2.944 2.486-5.651 5.494-5.651h136.221v31.543c0 24.582 4.704 34.681 23.619 45.309 14.857 8.358 112.803 64.010 162.025 85.539zM947.84 120.185c-13.216 7.408-99.459 57.673-143.767 75.334v76.419c12.819 9.229 20.541 23.433 20.541 44.969v60.375c0 50.067-30.809 91.043-92.423 91.043-29.552 0-51.997-9.418-67.376-24.749 5.565-13.734 8.327-29.111 8.327-45.299v-69.683c0-23.232-7.737-39.079-20.784-49.744 2.368-2.663 5.014-5.024 7.949-7.13v-76.202l-10.784-4.81v-2.214c50.953-20.384 150.135-78.394 165.334-86.944 18.912-10.627 23.619-20.726 23.619-45.309v-31.543h124.409c3.008 0 5.495 2.707 5.495 5.651v50.576c0 21.299-4.090 30.051-20.541 39.257z" horiz-adv-x="992" />
<glyph unicode="&#xe602;" d="M64 178.822c0 83.171 71.635 150.589 160 150.589s160-67.418 160-150.589c0-83.168-71.635-150.589-160-150.589s-160 67.421-160 150.589zM369.661 349.2l22.295 25.401 9.865-7.485 16.061 15.485-41.987 33.466-15.677-16.483 12.055-10.634-24.621-23.719c-31.539 17.136-54.256 31.45-99.286 35.45l0.006 47.35h16.599c16.586 0 17.623 15.485 17.623 15.485 0 15.481-17.623 16.483-17.623 16.483h-80.355c-18.653 0-16.595-18.467-16.595-18.467 0-13.501 15.559-13.002 15.559-13.002h16.566v-47.913c-96.093 0-200.144-99.885-200.144-216.218 0-119.501 100.547-216.4 224.576-216.4 124.025 0 223.424 96.899 223.424 216.4 0 66-30.31 125.101-78.339 164.8zM232.307 193.283v74.63c0 4.419-3.712 7.968-8.294 7.968-4.576 0-8.294-3.549-8.294-7.968v-75.133c0 0-17.111-1.248-17.111-24.729 0-13.651 10.445-23.75 24.627-23.75 14.173 0 25.651 10.099 25.651 23.75 0 22.983-16.579 25.232-16.579 25.232z" horiz-adv-x="448" />
<glyph unicode="&#xe603;" d="M566.192 246.135c-4.886 14.442-10.88 28.55-17.856 42.013l-84.861-37.421c7.495-13.305 13.491-27.401 17.869-42.006l84.848 37.415zM131.353 276.704c9.379 11.955 20.041 22.822 31.773 32.375l-65.357 66.585c-11.353-9.929-22.023-20.797-31.773-32.371l65.357-66.589zM190.64 327.927c13.12 7.472 27.024 13.414 41.434 17.712l-35.747 86.877c-14.195-4.797-28.102-10.745-41.434-17.718l35.747-86.871zM95.235 205.639c4.157 14.707 9.933 28.903 17.21 42.294l-85.415 36.054c-6.794-13.625-12.576-27.817-17.223-42.288l85.427-36.061zM421.529 415.344c-13.379 6.928-27.312 12.819-41.501 17.555l-35.408-87.031c14.429-4.24 28.358-10.125 41.507-17.539l35.401 87.014zM511.462 343.293c-9.744 11.571-20.413 22.438-31.773 32.371l-65.353-66.589c11.735-9.552 22.397-20.416 31.773-32.375l65.353 66.592zM311.2 446.778c-7.581 0.589-15.123 0.886-22.467 0.886s-14.889-0.298-22.464-0.886v-94.16c7.459 0.845 14.995 1.271 22.464 1.271 7.472 0 15.011-0.423 22.467-1.271v94.16zM288.771-19.424c-44.752 0-81.034 35.491-81.034 79.261 0 29.878 16.903 55.879 41.859 69.385l39.174 179.587 39.171-179.587c24.96-13.507 41.863-39.514 41.863-69.385 0.007-43.769-36.281-79.261-81.034-79.261z" horiz-adv-x="576" />
<glyph unicode="&#xe604;" d="M195.667 124.877c-88.099 0-159.485 71.367-159.485 159.463 0 88.093 71.385 159.462 159.485 159.462 88.096 0 159.485-71.37 159.485-159.462 0-88.096-71.389-159.463-159.485-159.463zM366.445 145.738l-17.187 17.187c26.39 33.347 42.077 75.577 42.077 121.415 0 108.073-87.591 195.661-195.667 195.661s-195.667-87.587-195.667-195.661c0-108.074 87.591-195.661 195.667-195.661 45.833 0 88.039 15.699 121.408 42.064l17.187-17.187c-7.341-13.769-5.238-31.232 6.384-42.851l92.010-92.029c14.217-14.233 37.274-14.233 51.507 0l17.178 17.155c14.211 14.237 14.211 37.309 0 51.526l-92.013 92.026c-11.606 11.61-29.104 13.702-42.883 6.355z" />
<glyph unicode="&#xe605;" d="M381.13 304.688l-68.375-69.248c0.774-3.248 1.305-6.659 1.305-10.135 0-23.395-18.717-42.825-41.853-42.825-15.651 0-29.139 10.505-36.333 21.098h-57.833c-5.763 0-10.553 5.945-10.553 11.757v20.189c0 5.811 4.791 10.413 10.553 10.413h57.834c7.194 10.589 20.682 21.76 36.333 21.76 4.128 0 8.055-0.857 11.834-1.997l67.763 68.649c4.067 4.115 10.729 4.157 14.797 0.042l14.528-14.726c4.089-4.119 4.089-10.839 0-14.976zM518.951 182.397c2.409 21.181 4.128 28.586 4.128 43.065 0 140.169-112.643 254.538-251.113 254.538s-251.043-113.799-251.043-253.994c0-140.109 104.713-253.949 251.197-253.949v0.041c41.853 0.125 94.391 13.61 136.631 41.533l1.216 0.825 30.909-43.331c3.392-4.736 7.562-3.991 9.257 1.552l46.154 135.549c1.719 5.565-1.613 10.176-7.376 10.301l-143.031-0.041c-5.783 0.122-7.744-3.683-4.39-8.377l31.642-44.064c-31.286-20.355-59.159-30.157-101.011-30.304v-0.166c-104.63 0.022-188.458 85.363-188.416 190.64 0 105.28 84.304 190.618 188.323 190.618 103.997 0 188.304-86.073 188.304-191.369 0-14.563-1.911-21.885-5.017-43.066h63.638z" horiz-adv-x="544" />
<glyph unicode="&#xe606;" d="M291.053 310.966c8.63-4.893 19.178-1.337 24.038 6.538l66.269 107.677c5.136 8.323 2.509 18.611-5.549 23.216l-37.597 21.351-84.647-137.434 37.485-21.347zM81.267-29.731c8.602-4.857 19.139-1.337 24.064 6.567l64.406 104.653c5.091 8.288 2.506 18.608-5.581 23.235l-37.568 21.309-82.845-134.419 37.523-21.344zM327.872 475.639c-23.805 10.153-127.699 18.739-248.688-172.647-127.565-201.68-68.135-293.082-45.421-305.399l82.614 134.067c-18.522 10.55-9.664 33.050 11.994 77.498 14.333 29.363 34.701 64.288 59.408 96.451 17.305 22.586 36.15 43.517 55.549 32.512l84.544 137.517z" horiz-adv-x="384" />
<glyph unicode="&#xe607;" d="M487.779 225.613l-93.533-77.859c-2.938-2.512-6.56-3.75-10.247-3.75-3.629 0-7.248 1.238-10.221 3.75l-93.498 77.859-256.029-255.99c2.528-0.682 5.034-1.623 7.744-1.623h704.006c2.784 0 5.277 0.941 7.84 1.623l-256.064 255.99zM1.971 457.552c-1.002-3.053-1.971-6.122-1.971-9.559v-447.99c0-2.752 0.941-5.248 1.597-7.811l253.997 253.984-253.623 211.376zM768 447.993c0 3.386-0.941 6.506-1.91 9.559l-253.587-211.306 253.962-254.003c0.63 2.567 1.536 5.008 1.536 7.76v447.99zM384 180.873l357.687 297.993c-1.907 0.384-3.651 1.133-5.683 1.133h-704.006c-1.933 0-3.715-0.749-5.625-1.133l357.629-297.993z" horiz-adv-x="768" />
<glyph unicode="&#xe608;" d="M512 175.475v97.049l-54.797 0.195c-5.101 21.145-13.447 41.037-24.486 59.101l38.618 38.883-68.63 68.624-38.889-38.614c-18.058 11.043-37.945 19.389-59.098 24.49l-0.192 54.797h-97.053l-0.192-54.797c-21.152-5.101-41.037-13.447-59.097-24.49l-38.893 38.615-68.624-68.624 38.614-38.883c-11.040-18.064-19.383-37.955-24.486-59.107l-54.794-0.189v-97.049l54.797-0.199c5.101-21.142 13.447-41.034 24.487-59.098l-38.617-38.889 68.631-68.624 38.889 38.621c18.058-11.053 37.942-19.389 59.097-24.49l0.189-54.797h97.053l0.195 54.797c21.152 5.101 41.037 13.447 59.098 24.483l38.887-38.608 68.63 68.624-38.615 38.883c11.040 18.064 19.382 37.955 24.486 59.101l54.793 0.195zM256 129.328c-52.285 0-94.669 42.387-94.669 94.669 0 52.288 42.381 94.675 94.669 94.675s94.669-42.387 94.669-94.675c0-52.281-42.384-94.669-94.669-94.669z" />
<glyph unicode="&#xe609;" d="M45.456 152.083l-45.456-184.083 186.135 42.448-140.679 141.635zM512 334.048l-144.957 145.952-278.262-280.141 144.963-145.959 278.256 280.147z" />
<glyph unicode="&#xe60a;" d="M368.17 19.19l-112.144 112.147-112.131-112.128c-25.606-25.61-67.082-25.623-92.695-0.010-25.6 25.6-25.6 67.082 0.013 92.695l112.125 112.128-112.093 112.096c-25.632 25.629-25.639 67.085-0.032 92.688 25.561 25.571 67.063 25.6 92.688-0.029l112.099-112.096 112.137 112.135c25.594 25.6 67.063 25.584 92.662-0.016 25.613-25.613 25.613-67.065 0.019-92.665l-112.137-112.135 112.151-112.147c25.587-25.591 25.543-67.075-0.019-92.647-25.606-25.603-67.049-25.606-92.643-0.016z" />
<glyph unicode="&#xe60b;" d="M272 416c103.84 0 188.307-86.118 188.307-191.994 0-105.879-84.467-192.006-188.307-192.006-103.827 0-188.307 86.128-188.307 192.006 0 105.875 84.48 191.994 188.307 191.994v0zM272 480c-138.666 0-251.078-114.595-251.078-255.994 0-141.379 112.413-256.006 251.078-256.006 138.656 0 251.078 114.627 251.078 256.007 0 141.399-112.423 255.993-251.078 255.993v0zM334.768 128.003c-8.048 0-16.070 3.123-22.189 9.373l-62.749 63.984c-5.68 5.769-9.194 13.728-9.216 22.563v0c0 0.029 0 0.083 0 0.083v128c0 17.689 14.038 32 31.386 32 17.328 0 31.385-14.311 31.385-32v-114.752l53.575-54.624c12.259-12.48 12.259-32.752 0-45.255-6.131-6.25-14.183-9.373-22.192-9.373v0z" horiz-adv-x="544" />
<glyph unicode="&#xe60c;" d="M440.723 380.333l-44.406 54.205c-9.719 11.843-25.443 11.865-35.152 0l-203.159-248.195-71.171 86.973c-9.709 11.853-25.433 11.84-35.152 0.010l-44.407-54.231c-4.656-5.687-7.277-13.414-7.277-21.488 0-8.051 2.621-15.769 7.277-21.469l133.171-162.678c4.666-5.683 10.986-8.887 17.578-8.887 6.601 0 12.915 3.203 17.571 8.887l265.127 323.93c4.656 5.686 7.277 13.405 7.277 21.465 0 8.048-2.621 15.779-7.277 21.479z" horiz-adv-x="448" />
<glyph unicode="&#xe60d;" d="M339.401 123.865h-45.577c-4.199 0-7.603-3.481-7.603-7.783v-46.624c0-4.295 3.405-7.773 7.603-7.773h45.577c4.199 0 7.591 3.478 7.591 7.773v46.624c0 4.301-3.392 7.783-7.591 7.783zM202.666 61.687h45.581c4.198 0 7.6 3.478 7.6 7.773v46.624c0 4.301-3.401 7.783-7.6 7.783h-45.581c-4.198 0-7.6-3.481-7.6-7.783v-46.624c0-4.295 3.401-7.773 7.6-7.773zM111.51 61.687h45.578c4.202 0 7.6 3.478 7.6 7.773v46.624c0 4.301-3.399 7.783-7.6 7.783h-45.578c-4.189 0-7.591-3.481-7.591-7.783v-46.624c0-4.295 3.401-7.773 7.591-7.773zM346.992 209.347c0 4.298-3.392 7.773-7.591 7.773h-45.577c-4.199 0-7.603-3.475-7.603-7.773v-46.634c0-4.298 3.405-7.773 7.603-7.773h45.577c4.199 0 7.591 3.475 7.591 7.773v46.634zM202.666 154.941h45.581c4.198 0 7.6 3.475 7.6 7.773v46.633c0 4.298-3.401 7.773-7.6 7.773h-45.581c-4.198 0-7.6-3.475-7.6-7.773v-46.634c0-4.298 3.401-7.773 7.6-7.773zM111.51 154.941h45.578c4.202 0 7.6 3.475 7.6 7.773v46.633c0 4.298-3.399 7.773-7.6 7.773h-45.578c-4.189 0-7.591-3.475-7.591-7.773v-46.634c0-4.298 3.401-7.773 7.591-7.773zM286.221 302.601v-46.63c0-4.294 3.405-7.776 7.603-7.776h45.577c4.199 0 7.591 3.482 7.591 7.776v46.63c0 4.298-3.392 7.767-7.591 7.767h-45.577c-4.199 0-7.603-3.469-7.603-7.767zM202.666 248.195h45.581c4.198 0 7.6 3.482 7.6 7.776v46.63c0 4.298-3.401 7.767-7.6 7.767h-45.581c-4.198 0-7.6-3.469-7.6-7.767v-46.63c0-4.294 3.401-7.776 7.6-7.776zM111.51 248.195h45.578c4.202 0 7.6 3.482 7.6 7.776v46.63c0 4.298-3.399 7.767-7.6 7.767h-45.578c-4.189 0-7.591-3.469-7.591-7.767v-46.63c0-4.294 3.401-7.776 7.591-7.776zM370.8 423.433h-20.272v-38.768h7.642c17.44 0 31.575-14.445 31.575-32.307v-303.623c0-17.821-14.135-32.298-31.575-32.298h-268.329c-17.463 0-31.593 14.477-31.593 32.298v303.623c0 17.863 14.131 32.307 31.593 32.307h4.547v38.768h-17.197c-31.386 0-56.825-26.038-56.825-58.147v-339.159c0-32.083 25.44-58.128 56.825-58.128h293.61c31.376 0 56.835 26.045 56.835 58.128v339.159c0 32.109-25.459 58.147-56.835 58.147zM245.946 423.433h-46.976v-38.768h46.976v38.768zM282.32 340.288h31.834c4.406 0 7.962 2.88 7.962 6.454v126.803c0 3.571-3.555 6.454-7.962 6.454h-31.834c-4.403 0-7.962-2.883-7.962-6.454v-126.803c0-3.575 3.558-6.454 7.962-6.454zM130.758 340.288h31.846c4.393 0 7.952 2.88 7.952 6.454v126.803c0 3.571-3.559 6.454-7.952 6.454h-31.846c-4.403 0-7.949-2.883-7.949-6.454v-126.803c0-3.575 3.546-6.454 7.949-6.454z" horiz-adv-x="448" />
<glyph unicode="&#xe60e;" d="M0 96v-128h320v128h-320zM0 288v-128h576v128h-576zM0 480v-128h832v128h-832z" horiz-adv-x="832" />
<glyph unicode="&#xe60f;" d="M346.711 223.978l-251.367 251.315c-6.297 6.275-16.602 6.275-22.877 0l-67.741-67.773c-6.304-6.246-6.304-16.544 0-22.902l160.695-160.669-160.64-160.643c-6.25-6.25-6.25-16.576 0-22.88l67.744-67.741c6.304-6.246 16.662-6.246 22.906 0l251.28 251.293z" horiz-adv-x="384" />
<glyph unicode="&#xe610;" d="M0.006 223.978l251.369 251.315c6.295 6.275 16.601 6.275 22.873 0l67.744-67.773c6.304-6.246 6.304-16.544 0-22.902l-160.697-160.669 160.64-160.643c6.253-6.25 6.253-16.576 0-22.88l-67.741-67.741c-6.304-6.246-16.663-6.246-22.905 0l-251.283 251.293z" horiz-adv-x="384" />
<glyph unicode="&#xe611;" d="M256 480c-141.382 0-256-114.615-256-256s114.618-256 256-256c141.382 0 256 114.615 256 256s-114.618 256-256 256zM256 23.962c-110.483 0-200.035 89.562-200.035 200.038 0 110.48 89.552 200.042 200.035 200.042s200.042-89.562 200.042-200.042c0-110.477-89.558-200.038-200.042-200.038zM344.048 199.379c14.221 0 25.728 11.469 25.728 25.635 0 14.15-11.507 25.638-25.728 25.638h-62.304v62.051c0 14.166-11.51 25.635-25.744 25.635-14.224 0-25.744-11.469-25.744-25.635v-62.051h-62.275c-14.24 0-25.757-11.488-25.757-25.638 0-14.167 11.517-25.635 25.757-25.635h62.275v-62.048c0-14.169 11.52-25.648 25.744-25.648 14.233 0 25.744 11.478 25.744 25.648v62.048h62.304z" />
<glyph unicode="&#xe612;" d="M0 288v-32h32v-32h32v-32h32v-32h32v32h32v32h32v32h32v32h-224z" horiz-adv-x="224" />
<glyph unicode="&#xe613;" d="M335.581 81.942h-224.454v37.28h224.454v-37.28zM335.539 150.81h-224.413v37.28h224.413v-37.28zM335.539 219.571h-224.413v37.283h224.413v-37.283zM279.863 430.291v-106.563h114.704v-306.019h-341.133v412.582h226.429zM313.261 480h-313.261v-512h448v386.797l-134.739 125.203z" horiz-adv-x="448" />
<glyph unicode="&#xe614;" d="M437.017 405.021c-99.971 99.971-262.061 99.974-362.035 0-99.978-99.978-99.975-262.067 0-362.041 99.971-99.971 262.061-99.975 362.035 0 99.978 99.978 99.974 262.067 0 362.041zM114.553 82.553c-78.121 78.121-78.118 204.778 0 282.893 78.118 78.122 204.774 78.125 282.896 0.003s78.118-204.777 0-282.899c-78.118-78.118-204.774-78.121-282.896 0.003zM300.851 144.329c10.055-10.055 26.301-10.080 36.32-0.064 10.003 10.007 9.99 26.269-0.064 36.32l-44.055 44.058 43.875 43.875c10.016 10.016 9.987 26.269-0.077 36.333-10.058 10.058-26.317 10.093-36.333 0.077l-43.875-43.875-44.032 44.032c-10.073 10.070-26.339 10.089-36.346 0.087-10.016-10.019-9.981-26.272 0.087-36.343l44.035-44.032-43.875-43.875c-10.019-10.022-9.99-26.285 0.071-36.343 10.061-10.061 26.32-10.087 36.339-0.067l43.875 43.875 44.055-44.058z" />
<glyph unicode="&#xe615;" d="M256.003 480c-141.386 0-256.003-114.618-256.003-256s114.618-256 256.003-256c141.379 0 255.997 114.618 255.997 256s-114.618 256-255.997 256zM256.573 46.893c-20.141 0-36.471 16.327-36.471 36.471 0 20.137 16.329 36.457 36.471 36.457 20.137 0 36.464-16.32 36.464-36.457 0-20.144-16.327-36.471-36.464-36.471zM304.755 345.491c-3.085-24.585-25.725-144.256-33.209-183.581-1.382-7.277-7.741-12.547-15.142-12.547h-0.301c-7.664 0-14.211 5.44-15.642 12.966-7.581 39.92-30.189 159.696-33.226 183.885-3.651 29.133 19.082 54.896 48.439 54.896 29.747 0 52.787-26.106 49.081-55.619z" />
<glyph unicode="&#xe616;" d="M0 224c0 141.385 114.615 256 256 256s256-114.615 256-256c0-141.385-114.615-256-256-256s-256 114.615-256 256z" />
<glyph unicode="&#xe617;" d="M500.666 262.179c22.832-155.389-95.37-294.179-248.938-294.179-139.024 0-251.728 114.611-251.728 255.997s112.704 256.003 251.728 256.003c61.127 0 117.155-22.16 160.758-59.008l-40.502-41.194c-33.113 26.471-74.873 42.259-120.259 42.259-107.558 0-194.752-88.669-194.752-198.058 0-109.385 87.194-198.058 194.752-198.058 101.741 0 185.245 79.344 193.981 180.509l54.96 55.728zM476.358 431.241l-210.509-214.080-91.178 92.752-67.613-68.771 158.793-161.539 278.147 282.893-67.642 68.745z" horiz-adv-x="544" />
<glyph unicode="&#xe618;" d="M480 265.709l-225.936-249.878c-52.451-58.003-144.141-64.112-204.387-13.613-60.243 50.505-66.585 138.791-14.138 196.791l221.93 245.443c38.979 43.107 107.12 47.651 151.894 10.115 44.771-37.529 49.485-103.136 10.502-146.253l-168.57-186.429c-25.382-28.067-69.75-31.024-98.912-6.582-29.155 24.435-32.221 67.161-6.839 95.235l130.585 144.419 38.087-31.93-130.579-144.419c-7.104-7.849-6.243-19.795 1.913-26.634 8.15-6.825 20.55-6 27.657 1.843l168.563 186.432c20.695 22.883 18.192 57.715-5.575 77.645-23.776 19.926-59.945 17.517-80.637-5.376l-221.927-245.443c-34.166-37.779-30.038-95.28 9.207-128.183 39.242-32.893 98.96-28.915 133.126 8.867l225.936 249.885 38.096-31.936z" horiz-adv-x="480" />
<glyph unicode="&#xe619;" d="M399.501 480h-126.999v-158.006h-64.183l127.68-131.088 127.68 131.088h-64.183v158.006h0.003zM672 224.391v-256.39h-672v256.39l153.357 255.606h75.623l-152.384-255.606h84.4l58.864-67.856h231.462l60.496 67.856h83.651l-152.816 255.606h76.627l152.72-255.606z" horiz-adv-x="672" />
<glyph unicode="&#xe61a;" d="M292.367 411.922l121.455-121.462c15.565-15.568 40.8-15.568 56.387 0.018 15.568 15.559 15.559 40.815 0 56.383l-121.462 121.456c-15.574 15.577-40.81 15.577-56.38 0.009-15.574-15.562-15.574-40.825 0-56.404zM283.471 160.123l-121.459 121.44c-15.568 15.58-40.822 15.58-56.401 0-15.559-15.556-15.568-40.822 0-56.38l121.452-121.474c15.568-15.556 40.831-15.556 56.399 0.018 15.571 15.55 15.571 40.825 0.009 56.395zM299.144 389.165l-126.925-91.23 127.594-127.627 91.23 126.946-91.898 91.91zM156.696 154.95l-16.037 16.038-138.141-144.315-2.34-28.245-0.177-0.178 0.16 0.009-0.027-0.142 0.177 0.159 28.262 2.328 144.305 138.171-16.182 16.173z" horiz-adv-x="482" />
<glyph unicode="&#xe61b;" d="M192 112h32v32h32v32h32v32h32v32h-32v32h-32v32h-32v32h-32v-224z" />
<glyph unicode="&#xe61c;" d="M256 480c-141.386 0-256-114.615-256-256s114.615-256 256-256c141.385 0 256 114.615 256 256s-114.615 256-256 256zM256 23.962c-110.48 0-200.038 89.562-200.038 200.038 0 110.48 89.558 200.038 200.038 200.038 110.477 0 200.038-89.558 200.038-200.038 0-110.477-89.562-200.038-200.038-200.038zM265.849 125.456c15.693 1.226 29.229 5.216 40.768 12.122 18.768 11.046 28.151 28.995 28.151 53.846 0 18.72-6.921 33.293-20.461 43.725-8.304 6.137-27.453 14.653-46.921 19.638-11.379 2.915-21.226 5.831-21.226 5.831-5.693 2.147-9.846 4.601-12.464 7.363-4.922 4.605-7.229 11.2-7.229 19.485 0 7.363 1.539 13.347 4.768 17.642 3.232 4.298 8.154 6.599 14.925 6.906h19.69l5.229-0.461 4.618-1.011c6.493-1.738 11.28-4.921 14.461-9.575 2.461-3.987 4.307-10.125 5.229-18.409h39.382c-0.615 22.093-10 38.048-27.997 47.865-10 6.137-23.693 9.817-40.921 11.046v30.224h-19.69v-30.224c-9.386-0.921-16.464-1.993-21.386-3.53-7.997-2.761-15.229-7.363-21.69-14.112-5.078-5.37-9.078-11.661-11.846-19.024-2.771-7.366-4.154-15.344-4.154-24.24 0-13.504 3.539-25.161 10.768-34.675 7.232-9.664 19.539-17.181 37.075-22.397l11.232-3.529 19.689-4.909c9.229-3.223 15.846-6.291 19.693-9.207 6.461-5.213 9.843-12.118 9.843-21.017 0-11.661-3.536-19.789-10.461-24.394-4-2.762-10.461-4.601-19.075-5.523h-19.69c-11.693 1.997-19.539 6.445-23.539 13.347-2.614 4.298-4.614 13.040-5.997 25.93h-39.386c-0.307-26.697 8-45.414 25.075-56.304 9.539-6.137 24.154-10.281 43.846-12.429v-29.456h19.689v29.456z" />
<glyph unicode="&#xe61d;" d="M701.121 389.305l-68.602 32.029c-2.54 1.175-5.299 1.778-8.084 1.778-1.914 0-3.828-0.293-5.701-0.862-4.543-1.413-8.306-4.449-10.442-8.451l-62.834-117.356-70.409 82.188c-3.558 4.159-8.818 6.329-14.117 6.329-3.763 0-7.549-1.101-10.798-3.368l-139.276-97.519c-2.25-1.559-4.053-3.607-5.299-5.937l-62.859-117.385-74.345 104.089c-2.984 4.199-7.859 6.923-13.23 7.424-0.597 0.051-1.201 0.071-1.778 0.071-4.764 0-9.352-1.758-12.76-4.926l-135.31-126.376c-7.040-6.582-7.040-17.257 0-23.839l54.24-50.625c3.519-3.296 8.15-4.935 12.76-4.935 4.605 0 9.239 1.639 12.758 4.935l53.66 50.065 100.731-141.127c3.365-4.711 8.997-7.506 15.010-7.506 0.379 0 0.734 0.009 1.135 0.031 6.414 0.375 12.135 3.909 15.007 9.281l125.87 235.042 47.921 33.544 105.517-123.215c3.451-4.022 8.662-6.32 14.094-6.32 0.645 0 1.271 0.031 1.914 0.082 6.101 0.615 11.491 4.087 14.231 9.23l129.078 241.021c4.452 8.326 0.845 18.438-8.084 22.608z" horiz-adv-x="711" />
<glyph unicode="&#xe61e;" d="M162.006 22.704c28.688 2.279 53.434 9.687 74.528 22.509 34.31 20.515 51.466 53.849 51.466 100.007 0 34.762-12.656 61.827-37.405 81.203-15.184 11.395-50.189 27.213-85.776 36.47-20.813 5.411-38.809 10.826-38.809 10.826-10.406 3.99-18 8.547-22.781 13.677-8.999 8.547-13.216 20.8-13.216 36.183 0 13.677 2.809 24.791 8.717 32.768s14.906 12.25 27.28 12.819h35.997l9.565-0.854 8.435-1.879c11.872-3.229 20.624-9.142 26.435-17.779 4.499-7.408 7.875-18.807 9.561-34.192h71.997c-1.127 41.031-18.281 70.663-51.184 88.896-18.281 11.398-43.309 18.233-74.809 20.515v56.128h-35.997v-56.128c-17.155-1.709-30.093-3.705-39.091-6.553-14.627-5.13-27.843-13.677-39.654-26.214-9.28-9.971-16.592-21.651-21.654-35.328s-7.593-28.493-7.593-45.017c0-25.075 6.467-46.726 19.687-64.394 13.216-17.949 35.715-31.911 67.776-41.597l20.531-6.553 35.997-9.117c16.874-5.984 28.966-11.683 36-17.094 11.811-9.687 17.997-22.509 17.997-39.037 0-21.651-6.467-36.752-19.123-45.299-7.312-5.13-19.123-8.547-34.874-10.259h-35.997c-21.373 3.705-35.718 11.968-43.031 24.787-4.781 7.981-8.435 24.221-10.966 48.154h-71.997c-0.563-49.577 14.624-84.336 45.84-104.567 17.437-11.395 44.157-19.088 80.153-23.079v-54.704h35.997v54.704z" horiz-adv-x="288" />
<glyph unicode="&#xe61f;" d="M447.648 286.935l-18.074 193.065h-51.395l-19.514-193.065h-34.381v84.227l-81.178-84.227h-23.968v84.227l-81.174-84.227h-23.987v84.227l-81.159-84.227h-32.819v-318.935h480v318.935h-32.352zM153.917 15.911h-85.466v88.656h85.466v-88.656zM153.917 140.749h-85.466v88.659h85.466v-88.659zM281.552 15.911h-85.466v88.656h85.466v-88.656zM281.552 140.749h-85.466v88.659h85.466v-88.659zM409.184 15.911h-85.478v88.656h85.478v-88.656zM409.184 140.749h-85.478v88.659h85.478v-88.659z" horiz-adv-x="480" />
<glyph unicode="&#xe620;" d="M256-32c-141.159 0-256 114.841-256 256s114.841 256 256 256c141.159 0 256-114.841 256-256s-114.841-256-256-256zM256 430.147c-113.671 0-206.147-92.48-206.147-206.147 0-113.671 92.477-206.147 206.147-206.147s206.147 92.477 206.147 206.147c0 113.667-92.477 206.147-206.147 206.147zM427.127 275.344c-3.014 9.111-6.714 18.007-11.014 26.496l-52.349-23.6c4.624-8.39 8.323-17.28 11.024-26.489l52.339 23.594zM158.899 294.624c5.782 7.539 12.362 14.39 19.6 20.416l-40.317 41.994c-7.005-6.263-13.584-13.117-19.6-20.416l40.317-41.993zM195.469 326.928c8.093 4.711 16.669 8.461 25.559 11.171l-22.051 54.787c-8.755-3.024-17.334-6.774-25.559-11.174l22.051-54.784zM136.618 249.805c2.566 9.277 6.128 18.227 10.618 26.675l-52.688 22.736c-4.192-8.592-7.757-17.543-10.624-26.669l52.694-22.743zM337.891 382.058c-8.253 4.368-16.848 8.087-25.6 11.072l-21.84-54.887c8.899-2.675 17.491-6.384 25.603-11.063l21.837 54.877zM393.366 336.618c-6.010 7.299-12.595 14.151-19.6 20.416l-40.313-41.993c7.238-6.026 13.815-12.877 19.6-20.416l40.313 41.993zM269.834 401.882c-4.675 0.371-9.325 0.56-13.856 0.56s-9.184-0.189-13.859-0.56v-59.382c4.601 0.531 9.251 0.8 13.859 0.8s9.257-0.265 13.856-0.8v59.382zM256 107.869c-27.607 0-49.987 22.381-49.987 49.987 0 18.841 10.429 35.238 25.824 43.757l24.163 113.257 24.163-113.257c15.395-8.519 25.821-24.918 25.821-43.76 0.003-27.603-22.377-49.984-49.984-49.984z" />
<glyph unicode="&#xe621;" d="M560.608 152.285v-71.248l143.392 142.963-143.392 142.97v-71.248h-256.070v-143.437h256.070zM484.902 101.082v-133.082h-484.902v512h484.902v-133.082h-68.352v64.816h-348.202v-375.469h348.202v64.816h68.352z" horiz-adv-x="704" />
<glyph unicode="&#xe622;" d="M527.197 403.699l-60.759-59.021c-32.989 32.041-78.557 51.856-128.889 51.856-100.669 0-182.272-79.303-182.272-177.085 0-0.022 0 0.026 0 0h70.806l-113.104-109.811-112.979 109.811h69.344c0 0.016 0-0.007 0 0 0 143.879 120.080 260.55 268.205 260.55 74.064 0 141.113-29.159 189.648-76.301zM672 228.55l-112.979 109.815-113.104-109.815h70.806c0-0.025 0 0.025 0 0 0-97.782-81.603-177.085-182.272-177.085-50.333 0-95.901 19.815-128.889 51.856l-60.762-59.021c48.537-47.142 115.591-76.301 189.651-76.301 148.122 0 268.205 116.672 268.205 260.547 0 0.010 0-0.013 0 0l69.344 0.003z" horiz-adv-x="672" />
<glyph unicode="&#xe623;" d="M320 2.873l-68.999 143.319c-0.157-0.080-38.697-20.471-40.474-21.315-43.888-22.921-133.261 164.938-90.339 189.696l40.819 21.629-68.442 143.798c-0.048-0.022-40.617-21.558-41.299-21.923-28.195-15.808-104.727-53.203 9.696-293.671 115.398-242.531 186.992-198.422 217.677-183.325 2.368 1.159 41.213 21.712 41.36 21.792z" horiz-adv-x="320" />
<glyph unicode="&#xe624;" d="M160 480c-88.365 0-160-72.608-160-162.173 0-89.568 70.025-193.658 160-349.827 89.978 156.167 160 260.259 160 349.827 0 89.565-71.632 162.173-160 162.173zM159.997 205.783c-60.841 0-110.166 49.993-110.166 111.664s49.325 111.664 110.166 111.664c60.845 0 110.17-49.993 110.17-111.664 0-61.673-49.325-111.664-110.169-111.664z" horiz-adv-x="320" />
<glyph unicode="&#xe625;" d="M230.631 426.141c13.001-12.807 19.671-28.992 20.035-48.541 0-12.803-3.161-24.272-9.482-34.397-6.32-10.141-14.71-18.227-25.187-24.272v-223.463c10.477-6.055 18.867-14.141 25.187-24.265 6.32-10.141 9.482-21.61 9.482-34.406-0.365-19.546-7.034-35.728-20.035-48.531-13.001-12.797-29.446-19.376-49.299-19.735-19.865 0.358-36.285 6.938-49.283 19.735-13.005 12.803-19.699 28.986-20.048 48.531 0 12.797 3.162 24.265 9.478 34.406 6.32 10.125 14.71 18.211 25.187 24.265v223.463c-10.477 6.045-18.867 14.131-25.187 24.272-6.317 10.125-9.478 21.594-9.478 34.397 0.349 19.549 7.043 35.734 20.048 48.541 12.999 12.791 29.417 19.367 49.283 19.725 19.853-0.358 36.298-6.935 49.299-19.725zM205.702 353.6c6.499 6.4 9.75 14.4 9.75 24 0 9.603-3.251 17.597-9.75 24-6.487 6.4-14.621 9.603-24.371 9.603s-17.869-3.203-24.371-9.603c-6.499-6.403-9.75-14.397-9.75-24 0-9.6 3.251-17.6 9.75-24 6.502-6.397 14.621-9.789 24.371-10.131 9.75 0.343 17.885 3.734 24.371 10.131zM205.702 12.265c6.499 6.4 9.75 14.4 9.75 24s-3.251 17.6-9.75 24c-6.487 6.406-14.621 9.6-24.371 9.6s-17.869-3.193-24.371-9.6c-6.499-6.4-9.75-14.4-9.75-24s3.251-17.6 9.75-24c6.502-6.406 14.621-9.773 24.371-10.131 9.75 0.358 17.885 3.725 24.371 10.131zM518.521 70.666c6.317-10.135 9.479-21.603 9.479-34.4-0.361-19.555-7.043-35.734-20.048-48.531-12.998-12.803-29.433-19.376-49.283-19.735-19.865 0.358-36.298 6.931-49.299 19.735-13.002 12.797-19.683 28.976-20.035 48.531 0 12.797 3.149 24.265 9.481 34.4 6.31 10.137 14.711 18.208 25.187 24.265v214.397c0.349 1.421-1.632 7.111-5.955 17.072-4.339 9.952-13.911 15.639-28.714 17.069h-34.663v-68.265l-104.007 102.397 104.007 102.4v-68.266h34.663c4.329 2.131 21.667-2.055 51.993-12.531 30.339-10.493 47.667-40.454 52.007-89.875v-214.397c10.464-6.058 18.867-14.128 25.187-24.265zM483.040 12.265c6.499 6.4 9.75 14.4 9.75 24s-3.251 17.6-9.75 24c-6.502 6.406-14.621 9.6-24.371 9.6s-17.885-3.193-24.371-9.6c-6.499-6.4-9.75-14.4-9.75-24s3.251-17.6 9.75-24c6.486-6.406 14.621-9.773 24.371-10.131 9.75 0.358 17.869 3.725 24.371 10.131z" horiz-adv-x="640" />
<glyph unicode="&#xe626;" d="M640 268v-88h-143.568c-10.963-38.499-32.265-69.907-63.933-94.189-31.671-24.294-69.168-36.906-112.499-37.811-43.341 0.906-80.839 13.517-112.499 37.811-31.677 24.281-52.976 55.69-63.933 94.189h-143.568v88h143.568c10.957 38.499 32.256 69.882 63.933 94.189 31.661 24.279 69.158 36.88 112.499 37.811 43.331-0.931 80.829-13.533 112.499-37.811 31.667-24.307 52.969-55.689 63.933-94.189h143.568zM385.002 161.437c17.142 16.499 25.949 37.344 26.432 62.563-0.483 25.197-9.289 46.064-26.432 62.563-17.146 16.499-38.813 24.97-65.002 25.437-26.195-0.467-47.856-8.938-64.999-25.437-17.145-16.499-25.958-37.367-26.429-62.563 0.47-25.219 9.283-46.064 26.429-62.563 17.143-16.499 38.803-24.983 64.999-25.437 26.189 0.454 47.856 8.938 65.001 25.437z" horiz-adv-x="640" />
<glyph unicode="&#xe627;" d="M192 480v-128h-128v-384h384v128h128v384h-384zM384 32h-256v256h64v-192h192v-64zM512 160h-256v256h256v-256z" horiz-adv-x="640" />
<glyph unicode="&#xe628;" d="M219.187-23.002c-43.843 0-87.686 16.688-121.063 50.032-32.314 32.375-50.125 75.344-50.125 121.094 0 45.719 17.811 88.72 50.125 121.063l169.687 169.686c48.064 48.064 126.189 48.032 174.253 0.032 48.029-48.061 48.029-126.218 0-174.25l-169.69-169.687c-29.344-29.408-77.063-29.344-106.375 0-29.312 29.28-29.312 76.999 0 106.31l169.687 169.69c10.656 10.624 27.875 10.624 38.502 0 10.624-10.595 10.624-27.843 0-38.438l-169.721-169.687c-8.093-8.125-8.093-21.312 0-29.44 8.096-8.029 21.283-8.093 29.408 0l169.719 169.69c26.845 26.841 26.845 70.499 0 97.344-26.781 26.781-70.467 26.841-97.28 0l-169.719-169.719c-22.064-22.064-34.221-51.408-34.221-82.595 0-31.219 12.157-60.531 34.221-82.624 45.498-45.501 119.498-45.501 165.031-0.125l0.125 0.125c0 0.032 0 0.032 0 0.032l237.625 237.561c10.624 10.624 27.811 10.624 38.435 0 10.627-10.595 10.627-27.843 0-38.438l-248.874-248.905-0.563 0.499c-31.529-26.157-70.375-39.251-109.187-39.251z" horiz-adv-x="640" />
<glyph unicode="&#xe629;" d="M224 480c-17.686 0-32-14.313-32-32v-64h64v32h240c8.845 0 16-7.155 16-16v-176h-32v-64h64c17.687 0 32 14.313 32 32v256c0 17.687-14.313 32-32 32h-320zM96 352c-17.686 0-32-14.313-32-32v-256c0-17.687 14.314-32 32-32h96l83.936-55.187c7.376-4.877 20.531-8.813 29.376-8.813h62.688c8.845 0 16 7.155 16 16v48h32c17.687 0 32 14.313 32 32v256c0 17.687-14.313 32-32 32h-320zM384 96h-64v-64l-96 64h-96v192h256v-192z" horiz-adv-x="640" />
<glyph unicode="&#xe62a;" d="M208 288h224c8.845 0 16 7.155 16 16v32c0 8.845-7.155 16-16 16h-224c-8.845 0-16-7.155-16-16v-32c0-8.845 7.155-16 16-16zM208 192h224c8.845 0 16 7.155 16 16v32c0 8.845-7.155 16-16 16h-224c-8.845 0-16-7.155-16-16v-32c0-8.845 7.155-16 16-16zM64 480v-416h64v-64c0-17.687 14.314-32 32-32h32c5.811 0 11.501 1.562 16.467 4.563l152.406 91.437h215.127v416h-512zM512 128h-160c-5.811 0-11.501-1.562-16.467-4.563l-143.533-86.125v58.688c0 17.687-14.314 32-32 32h-32v288h384v-288z" horiz-adv-x="640" />
<glyph unicode="&#xe62b;" d="M64 480v-512h512v512h-512zM512 32h-384v384h384v-384zM276.688 126.064c6.25-6.253 16.375-6.253 22.624 0l144 144c6.25 6.25 6.25 16.375 0 22.624l-22.624 22.624c-6.25 6.25-16.375 6.25-22.624 0l-110.064-110.061-46.064 46.061c-6.25 6.25-16.375 6.25-22.624 0l-22.624-22.624c-6.25-6.25-6.25-16.375 0-22.624l80-80z" horiz-adv-x="640" />
<glyph unicode="&#xe62c;" d="M522.419 239.161c13.994-13.731 21.191-31.088 21.581-52.067-0.39-20.976-7.587-38.32-21.581-52.051-14-13.731-31.706-20.791-53.085-21.171-14 0.381-26.643 3.911-37.917 10.586-11.283 6.675-20.227 15.536-26.832 26.599-3.123-0.384-6.419-0.56-9.92-0.56-35.389 0.355-69.123 8.179-101.203 23.44-32.089 15.267-60.579 35.846-85.459 61.792v-131.581c11.267-6.496 20.314-15.168 27.123-26.026 6.8-10.87 10.208-23.168 10.208-36.899-0.397-20.979-7.584-38.32-21.587-52.051-14-13.735-31.696-20.787-53.082-21.171-21.395 0.384-39.085 7.437-53.085 21.171-13.993 13.731-21.197 31.072-21.581 52.051 0 13.731 3.401 26.029 10.208 36.899 6.8 10.858 15.843 19.529 27.123 26.026v239.706c-11.28 6.483-20.323 15.155-27.123 26.025-6.806 10.87-10.208 23.168-10.208 36.899 0.384 20.963 7.587 38.333 21.581 52.067 14 13.719 31.69 20.771 53.085 21.155 21.386-0.384 39.082-7.437 53.082-21.155 14.003-13.735 21.191-31.104 21.587-52.067 0-11.065-2.333-21.363-6.999-30.896-4.672-9.546-11.088-17.725-19.255-24.589 14.387-36.243 37.529-66.371 69.415-90.403 31.888-24.016 67.28-36.416 106.169-37.171l9.92-0.573c6.605 11.434 15.549 20.487 26.832 27.159 11.274 6.675 23.917 10.016 37.917 10.016 21.379-0.387 39.085-7.447 53.085-21.159zM196.918 381.024c6.999 6.867 10.499 15.453 10.499 25.754s-3.501 18.87-10.499 25.737c-7.001 6.867-15.754 10.298-26.253 10.298-10.502 0-19.245-3.43-26.246-10.298s-10.502-15.437-10.502-25.737c0-10.301 3.501-18.887 10.502-25.754s15.744-10.49 26.246-10.861c10.499 0.371 19.251 3.993 26.253 10.861zM196.918 14.909c6.999 6.864 10.499 15.443 10.499 25.741 0 10.294-3.501 18.873-10.499 25.738-7.001 6.864-15.754 10.313-26.253 10.313-10.502 0-19.245-3.45-26.246-10.313s-10.502-15.443-10.502-25.738c0-10.298 3.501-18.877 10.502-25.741 7.001-6.861 15.744-10.486 26.246-10.87 10.499 0.384 19.251 4.010 26.253 10.87zM495.581 161.357c7.002 6.861 10.502 15.456 10.502 25.738 0 10.31-3.501 18.873-10.502 25.741-7.002 6.864-15.744 10.31-26.247 10.31-10.499 0-19.251-3.447-26.253-10.31-6.998-6.867-10.499-15.43-10.499-25.741 0-10.281 3.501-18.877 10.499-25.738 7.002-6.864 15.753-10.505 26.253-10.861 10.502 0.355 19.245 3.997 26.247 10.861z" horiz-adv-x="640" />
<glyph unicode="&#xe62d;" d="M256 480c-141.382 0-256-114.615-256-256s114.618-256 256-256c141.382 0 256 114.615 256 256s-114.618 256-256 256zM256 23.962c-110.483 0-200.035 89.562-200.035 200.038 0 110.48 89.552 200.042 200.035 200.042s200.042-89.562 200.042-200.042c0-110.477-89.558-200.038-200.042-200.038zM344.048 199.379c14.221 0 25.728 11.469 25.728 25.635 0 14.15-11.507 25.638-25.728 25.638h-62.304v62.051c0 14.166-11.51 25.635-25.744 25.635-14.224 0-25.744-11.469-25.744-25.635v-62.051h-62.275c-14.24 0-25.757-11.488-25.757-25.638 0-14.167 11.517-25.635 25.757-25.635h62.275v-62.048c0-14.169 11.52-25.648 25.744-25.648 14.233 0 25.744 11.478 25.744 25.648v62.048h62.304z" />
<glyph unicode="&#xe62e;" d="M256 480c-141.376 0-256-114.624-256-256s114.624-256 256-256c141.376 0 256 114.624 256 256s-114.624 256-256 256zM256 32c-105.875 0-192 86.125-192 192s86.125 192 192 192c105.875 0 192-86.125 192-192s-86.125-192-192-192zM348.342 256h-184.56c-16.97 0-30.72-15.001-30.752-32 0.032-17.002 13.782-32 30.752-32h184.56c16.969 0 30.72 14.998 30.752 32 0 16.97-13.783 32-30.752 32z" />
<glyph unicode="&#xe62f;" d="M544.567 237.056c-65.19 100.167-158.852 157.611-257 157.611-102.895 0-201.651-60-257.728-156.613l-8.505-14.637 9.029-14.361c59.578-94.584 160.534-155.722 257.205-155.722 96.237 0 192.188 57.111 256.712 152.779l10.387 15.387-10.099 15.556zM287.567 110.223c-72.137 0-148.294 44.389-198.090 114.332 46.731 70.25 121.267 113.223 198.090 113.223 71.759 0 144.386-42.917 197.25-115.723-53.067-70.359-125.666-111.832-197.25-111.832zM288.030 309.333c-49.105 0-88.919-38.223-88.919-85.333s39.815-85.334 88.919-85.334c49.046 0 88.86 38.223 88.86 85.334s-39.815 85.334-88.86 85.334zM317.63 224c0-15.723-13.252-28.443-29.63-28.443s-29.63 12.721-29.63 28.444c0 15.722 13.252 28.444 29.63 28.444s29.63-12.721 29.63-28.444z" horiz-adv-x="576" />
<glyph unicode="&#xe630;" d="M355.557 288h-168.889v32c0 52.937 45.455 96 101.334 96 44.267 0 82.003-27.063 95.759-64.625 6.135-16.687 20.683-31.375 39.351-31.375v0c18.671 0 34.142 14.438 30.447 31.75-15.537 73.186-83.75 128.25-165.558 128.25-93.284 0-168.887-71.625-168.887-160v-32c-18.673 0-33.779-14.313-33.779-32v-256c0-17.688 15.106-32 33.779-32h337.777c18.669 0 33.777 14.313 33.777 32v256c0 17.688-15.108 32-33.777 32h-101.334zM423.111 32h-270.221v192h270.221v-192z" horiz-adv-x="576" />
<glyph unicode="&#xe631;" d="M542.634 46.615c-1.817 24.317-11.667 33.305-33.011 44.265-13.865 7.111-55.389 23.334-96.752 39.344-10.16 3.936-18.099 7.014-21.735 8.48-11.447 4.649-21.155 12.394-26.403 18.087l-4.029 4.25c-0.963 0.998-2.080 2.151-2.832 2.938 0.262 6.534-3.69 10.457-5.533 11.891-0.807 0.659-1.693 1.219-2.627 1.683 4.25 4.777 8.339 11.907 10.058 22.873 1.197 7.645 2.208 15.709 2.938 21.875 7.065 2.765 13.731 8.986 16.685 20.224 4.349 16.512 7.69 41.312 8.339 48.867l0.128 1.424c0.377 4.115 1.094 11.911-3.117 17.849 0.154 1.501 0.313 3.075 0.48 4.717 1.341 13.002 3.159 30.813 2.909 47.401l-0.115 7.382c-0.208 16.003-0.301 22.624-3.872 31.264-3.12 7.565-18.839 35.433-24.768 41.757-5.401 5.785-8.87 8.541-21.411 15.651-10.080 5.712-28.093 10.819-44.202 15.159-2.336 0.634-4.195 1.133-5.325 1.469l-3.136 1.002c-5.053 1.651-10.768 3.533-20.486 3.533l-2.509-0.041c-11.955-0.352-30.496-4.371-44.995-12.576-7.069-4.003-14.787-8.365-19.322-15.351h-5.597c-13.648 0-20.531-13.885-25.459-27.488-1.312-3.606-2.87-7.353-4.403-11.088-4.262-10.247-8.653-20.841-8.979-30.432-0.205-6.745 1.303-15.485 2.899-24.739 1.219-7.056 2.493-14.355 2.755-19.728 0.544-10.752 1.533-18.263 3.245-24.355-3.181-3.447-5.482-9.005-4.87-17.942 0.662-10.019 7.005-49.072 9.76-56.336 3.338-8.874 9.338-15.12 16.41-17.453 1.417-6.055 2.793-15.197 3.338-22.336 0.599-7.725 4.355-15.171 9.331-20.947-4.237-2.106-8.445-5.981-11.734-12.841-0.973-2.055-2-4.605-3.078-7.328-1.392-3.504-3.975-10.016-5.587-11.683-3.821-3.801-31.222-13.027-47.581-18.541-29.443-9.897-61.638-24.032-80.871-32.48l-10.032-4.377c-17.904-7.68-25.725-21.344-29.491-27.945l-1.014-1.741c-2.16-3.639-4.378-7.399-4.378-14.304-0.016-3.075-1.629-42.24-2.64-66.202-0.157-3.597 1.184-7.091 3.689-9.687 2.509-2.589 5.978-4.058 9.603-4.058h517.392c7.341 0 13.303 5.907 13.303 13.187 0 1.926-0.013 47.382-1.366 65.427z" horiz-adv-x="544" />
<glyph unicode="&#xe632;" d="M147.507 285.241c8.198 8.199 17.29 14.96 26.96 20.291 53.885 29.702 123.001 13.904 157.638-38.624l-41.917-41.913c-12.026 27.43-41.865 43.021-71.565 36.381-11.178-2.502-21.805-8.077-30.487-16.761l-80.355-80.352c-24.397-24.397-24.394-64.089 0-88.48 24.394-24.394 64.083-24.394 88.48 0l24.768 24.768c22.522-8.935 46.691-12.512 70.531-10.723l-54.672-54.672c-46.87-46.873-122.861-46.873-169.734 0-46.873 46.87-46.873 122.864-0.003 169.735l80.355 80.352zM275.111 412.845l-54.672-54.669c23.843 1.786 48.009-1.792 70.531-10.729l24.768 24.771c24.397 24.397 64.087 24.397 88.48 0 24.397-24.394 24.397-64.087 0-88.48l-80.355-80.352c-24.467-24.467-64.221-24.262-88.477 0-5.657 5.654-10.541 12.697-13.575 19.616l-41.913-41.913c4.4-6.678 8.982-12.454 14.861-18.333 15.165-15.168 34.467-26.467 56.669-31.808 28.781-6.925 59.613-3.085 86.106 11.52 9.667 5.331 18.762 12.089 26.96 20.288l80.352 80.352c46.873 46.874 46.873 122.864 0.003 169.738-46.873 46.873-122.867 46.873-169.738 0z" />
<glyph unicode="&#xe633;" d="M480 448l-115.945-425.875-147.795 143.555 145.638 157.482-195.219-138.24-134.679 33.539 448 229.539zM198.358 138.733v-138.733l63.872 75.683-63.872 63.050z" />
<glyph unicode="&#xe634;" d="M486.4 172.8v-25.6h-51.2v-51.2h-25.6v51.2h-51.2v25.6h51.2v51.2h25.6v-51.2h51.2zM281.6 160c0-77.762 63.038-140.8 140.8-140.8s140.8 63.038 140.8 140.8c0 77.762-63.038 140.8-140.8 140.8s-140.8-63.037-140.8-140.8zM300.8 301.696v2.445c7.987 5.858 12.8 14.874 12.8 28.544v38.326c0 31.778-19.2 57.79-57.6 57.79s-57.6-26.012-57.6-57.79v-38.326c0-13.809 4.813-22.851 12.8-28.682v-48.371c-26.012-11.213-81.362-43.115-89.6-47.821-10.25-5.844-12.8-11.399-12.8-24.919v-32.105c0-1.869 1.549-3.587 3.425-3.587h118.175c0 61.678 27.262 116.951 70.4 154.496zM177.405 267.699l-10.45 4.636v42.032c2.77 2.020 5.1 4.488 6.902 7.46-4.738 5.653-7.458 13.325-7.458 23.698v38.326c0 6.828 0.883 13.397 2.657 19.49-8.156 11.584-21.845 19.038-41.058 19.038-33.39 0-50.087-22.538-50.087-50.073v-33.206c0-11.966 4.183-19.799 11.131-24.852v-41.913c-22.62-9.712-70.751-37.358-77.913-41.434-8.912-5.064-11.131-9.876-11.131-21.591v-27.817c0-1.62 1.347-3.108 2.978-3.108h73.823v17.349c0 13.519 2.55 19.075 12.8 24.919 8.054 4.598 61.13 35.205 87.805 47.045zM350.594 333.824c25.462 11.566 53.696 18.017 83.456 18.176l0.036 20.306c0 27.535-16.697 50.073-50.087 50.073-16.013 0-28.178-5.179-36.514-13.611 3.015-7.555 4.514-16.010 4.514-24.917v-38.326c0-4.377-0.476-8.228-1.406-11.702z" horiz-adv-x="563" />
<glyph unicode="&#xe635;" d="M486.4 134.4v-25.6h-51.2v-51.2h-25.6v51.2h-51.2v25.6h51.2v51.2h25.6v-51.2h51.2zM281.6 121.6c0-77.762 63.038-140.8 140.8-140.8s140.8 63.038 140.8 140.8c0 77.762-63.038 140.8-140.8 140.8s-140.8-63.038-140.8-140.8zM419.328 312.96l-5.028 10.35-58.46-25.582c19.774 8.297 41.134 13.522 63.488 15.232zM99.243 314.729c7.088 8.965 15.145 17.113 24.008 24.279l-49.38 49.94c-8.579-7.45-16.64-15.598-24.005-24.279l49.377-49.94zM144.038 353.144c9.915 5.604 20.418 10.061 31.306 13.284l-27.011 65.157c-10.721-3.597-21.235-8.059-31.303-13.289l27.008-65.152zM71.957 261.427c3.141 11.034 7.506 21.678 12.999 31.723l-64.53 27.038c-5.138-10.219-9.505-20.864-13.012-31.713l64.543-27.049zM318.487 418.709c-10.107 5.194-20.634 9.613-31.355 13.166l-26.752-65.273c10.901-3.179 21.427-7.595 31.36-13.156l26.747 65.262zM386.437 364.669c-7.363 8.679-15.424 16.83-24.005 24.277l-49.375-49.941c8.863-7.163 16.916-15.312 24.002-24.279l49.377 49.943zM235.129 442.284c-5.73 0.44-11.425 0.663-16.973 0.663-5.55 0-11.249-0.223-16.976-0.663v-70.62c5.635 0.632 11.328 0.955 16.976 0.955 5.645 0 11.338-0.32 16.973-0.955v70.62zM218.181 92.631c4.373 0 8.619 0.476 12.731 1.321-0.353 4.913-0.512 9.846-0.512 14.848 0 33.3 7.916 64.75 22.016 92.544l-4.638 2.772-29.596 134.692-29.596-134.692c-18.857-10.13-31.629-29.63-31.629-52.039 0-32.827 27.412-59.446 61.225-59.446z" horiz-adv-x="563" />
<glyph unicode="&#xe636;" d="M486.4 121.6v-25.6h-51.2v-51.2h-25.6v51.2h-51.2v25.6h51.2v51.2h25.6v-51.2h51.2zM281.6 108.8c0-77.762 63.038-140.8 140.8-140.8s140.8 63.038 140.8 140.8c0 77.762-63.038 140.8-140.8 140.8s-140.8-63.038-140.8-140.8zM123.133 108.728h-68.37v70.925h68.37v-70.925zM123.133 208.599h-68.37v70.928h68.37v-70.928zM225.242 108.728h-68.373v70.925h68.373v-70.925zM225.242 208.599h-68.373v70.928h68.373v-70.928zM327.35 279.526l-0.057-3.815c17.375 9.907 36.47 17.157 56.707 21.248v28.588h-25.882l-14.459 154.452h-41.116l-15.611-154.452h-27.505v67.382l-64.94-67.382h-19.177v67.382l-64.939-67.382h-19.19v67.382l-64.927-67.382h-26.256v-255.148h234.24c-2.519 12.406-3.84 25.25-3.84 38.4 0 36.976 10.432 71.565 28.544 100.864l0.018 69.863h68.388z" horiz-adv-x="563" />
<glyph unicode="&#xe637;" d="M473.6 147.2v-25.6h-51.2v-51.2h-25.6v51.2h-51.2v25.6h51.2v51.2h25.6v-51.2h51.2zM268.8 134.4c0-77.762 63.038-140.8 140.8-140.8s140.8 63.038 140.8 140.8c0 77.762-63.038 140.8-140.8 140.8s-140.8-63.038-140.8-140.8zM266.281 362.841l15.288 17.779 6.766-5.24 11.010 10.839-28.79 23.426-10.75-11.538 8.266-7.442-16.886-16.604c-21.625 11.993-37.202 22.016-68.081 24.817l0.005 33.144h11.382c11.371 0 12.086 10.839 12.086 10.839 0 10.839-12.086 11.538-12.086 11.538h-55.099c-12.795 0-11.382-12.928-11.382-12.928 0-9.449 10.667-9.101 10.667-9.101h11.364v-33.541c-65.894 0-137.244-69.916-137.244-151.35 0-83.648 68.946-151.481 153.994-151.481 18.662 0 36.488 3.233 52.982 9.216-1.452 9.505-2.176 19.274-2.176 29.184 0 5.481 0.187 10.893 0.637 16.256-15.445-7.979-33.067-12.493-51.838-12.493-60.593 0-109.712 47.196-109.712 105.413s49.118 105.411 109.712 105.411c51.399 0 94.587-33.961 106.493-79.803 11.344 11.507 24.084 21.589 38.019 29.952-9.106 24.94-24.625 46.825-44.631 63.706zM172.096 253.696v52.244c0 3.093-2.547 5.575-5.686 5.575s-5.689-2.483-5.689-5.575v-52.593c0 0-11.735-0.875-11.735-17.314 0-9.554 7.163-16.625 16.888-16.625 9.718 0 17.587 7.071 17.587 16.625 0 16.087-11.367 17.661-11.367 17.661z" horiz-adv-x="563" />
<glyph unicode="&#xe638;" d="M328.733 81.942h-219.875v37.281h219.875v-37.281zM328.693 150.81h-219.834v37.281h219.834v-37.281zM328.693 219.571h-219.834v37.284h219.834v-37.284zM274.151 430.292v-106.566h112.362v-306.019h-334.168v412.584h221.805zM306.867 480h-306.867v-512h438.857v386.798l-131.99 125.202z" horiz-adv-x="439" />
<glyph unicode="&#xe639;" d="M256-32c-141.382 0-256 114.618-256 256s114.618 256 256 256 256-114.618 256-256-114.618-256-256-256zM256 433.454c-115.689 0-209.454-93.766-209.454-209.454s93.766-209.454 209.454-209.454 209.454 93.766 209.454 209.454-93.766 209.454-209.454 209.454zM279.272 180.76c0-12.753 0-26.577 0-26.577h-46.546c0 0 0 33.675 0 46.546s10.426 23.273 23.273 23.273v0c25.693 0 46.545 20.852 46.545 46.546s-20.853 46.545-46.546 46.545-46.546-20.852-46.546-46.545c0-8.518 2.444-16.408 6.447-23.273h-49.688c-1.955 7.47-3.304 15.197-3.304 23.273 0 51.409 41.681 93.091 93.091 93.091s93.091-41.681 93.091-93.091c0-43.311-29.719-79.407-69.818-89.786zM279.272 84.363h-46.546v46.546h46.546v-46.546z" />
<glyph unicode="&#xe63a;" d="M256 448c-123.712 0-224-100.288-224-224s100.288-224 224-224c123.712 0 224 100.288 224 224s-100.288 224-224 224zM256 48.931c-96.752 0-175.069 78.301-175.069 175.069 0 96.755 78.301 175.069 175.069 175.069 96.749 0 175.069-78.301 175.069-175.069 0-96.752-78.301-175.069-175.069-175.069zM393.897 213.36c1.859-0.323 3.219-1.936 3.219-3.824v-0.103c0-1.872-1.331-3.466-3.168-3.811-40.336-7.546-135.891-23.216-146.377-23.216-15.011 0-27.184 12.17-27.184 27.184 0 10.691 16.083 113.821 23.507 155.584 0.298 1.677 1.757 2.902 3.459 2.902h0.010c1.859 0 3.44-1.35 3.731-3.187l20.589-130.381 122.214-21.149z" />
<glyph unicode="&#xe63b;" d="M457.763 257.405c20.147-135.965-84.151-257.405-219.651-257.405-122.669 0-222.112 100.285-222.112 223.997s99.443 224.003 222.112 224.003c53.936 0 103.373-19.392 141.846-51.632l-35.738-36.045c-29.216 23.162-66.064 36.976-106.109 36.976-94.906 0-171.84-77.584-171.84-173.299 0-95.712 76.934-173.299 171.84-173.299 89.769 0 163.45 69.427 171.159 157.942l48.493 48.762zM436.317 405.334l-185.744-187.318-80.451 81.159-59.657-60.176 140.112-141.347 245.424 247.533-59.683 60.15z" />
<glyph unicode="&#xe63c;" d="M303.408 480l-303.408-512h606.815l-303.408 512zM274.392 289.316h58.031v-171.473h-58.031v171.473zM303.408 29.4c-17.294 0-31.315 13.663-31.315 30.514 0 16.849 14.021 30.512 31.315 30.512s31.315-13.663 31.315-30.512c0-16.851-14.021-30.514-31.315-30.514z" horiz-adv-x="607" />
<glyph unicode="&#xe63e;" d="M405.837 190.908h-129.002v158.007h-65.207l129.707 131.085 129.707-131.085h-65.203v131.085-289.092zM682.667 224.393v-256.393h-682.667v256.392l155.793 255.608h76.817l-154.799-255.608h85.747l59.789-67.857h235.136l61.462 67.857h84.971l-155.234 255.607h77.846l155.14-255.607z" horiz-adv-x="683" />
</font>
</defs>
</svg>
